<?xml version="1.0"?>
<svg width="250mm" height="200mm" viewBox="0 0   2500    1500"
     xmlns="http://www.w3.org/2000/svg"
     xmlns:xlink="http://www.w3.org/1999/xlink"
     xmlns:ev="http://www.w3.org/2001/xml-events">
<g font-family="Verdana" font-size="8" >
  <line x1="   300" y1="   270" x2="   300" y2="   350" style = "stroke:silver  ;"/>
  <rect x="  1450" y="   100" width="   200" height="    20" style = "fill:chartreuse; stroke: Black;"/>     1
  <text x="  1452" y="   113">ZONE1 OFFICE</text>
  <rect x="   200" y="   260" width="   200" height="    20" style = "fill:snow; stroke: Black;"/>     4
  <text x="   202" y="   273">OutdoorAir:NodeList</text>
  <rect x="   200" y="   340" width="   200" height="    20" style = "fill:snow; stroke: Black;"/>     5
  <text x="   202" y="   353">OutdoorAir:NodeList</text>
  <rect x="  1200" y="   100" width="   200" height="    20" style = "fill:wheat; stroke: Black;"/>    15
  <text x="  1202" y="   113">PSZ-OFFICE ZONE SPLITTER</text>
  <rect x="  1200" y="   180" width="   200" height="    20" style = "fill:wheat; stroke: Black;"/>    16
  <text x="  1202" y="   193">PSZ-FINE STORAGE ZONE SPLITTER</text>
  <rect x="   450" y="   100" width="   200" height="    20" style = "fill:silver; stroke: Black;"/>    17
  <text x="   452" y="   113">PSZ-OFFICE SUPPLY FAN</text>
  <rect x="   450" y="   180" width="   200" height="    20" style = "fill:silver; stroke: Black;"/>    18
  <text x="   452" y="   193">PSZ-FINE STORAGE SUPPLY FAN</text>
  <rect x="   200" y="    20" width="   200" height="    20" style = "fill:silver; stroke: Black;"/>    19
  <text x="   202" y="    33">ZONE3UNITHEATERFAN</text>
  <rect x="   700" y="   100" width="   200" height="    20" style = "fill:salmon; stroke: Black;"/>    20
  <text x="   702" y="   113">PSZ-OFFICE HEATING COIL</text>
  <rect x="   700" y="   180" width="   200" height="    20" style = "fill:salmon; stroke: Black;"/>    21
  <text x="   702" y="   193">PSZ-FINE STORAGE HEATING COIL</text>
  <rect x="   450" y="    20" width="   200" height="    20" style = "fill:salmon; stroke: Black;"/>    22
  <text x="   452" y="    33">ZONE3UNITHEATERHEATINGCOIL</text>
  <rect x="  1700" y="   100" width="   200" height="    20" style = "fill:wheat; stroke: Black;"/>    23
  <text x="  1702" y="   113">PSZ-OFFICE ZONE MIXER</text>
  <rect x="  1700" y="   180" width="   200" height="    20" style = "fill:wheat; stroke: Black;"/>    24
  <text x="  1702" y="   193">PSZ-FINE STORAGE ZONE MIXER</text>
  <rect x="   200" y="   100" width="   200" height="    20" style = "fill:lawngreen; stroke: Black;"/>    25
  <text x="   202" y="   113">PSZ-OFFICE OA MIXING BOX</text>
  <rect x="   200" y="   180" width="   200" height="    20" style = "fill:lawngreen; stroke: Black;"/>    26
  <text x="   202" y="   193">PSZ-FINE STORAGE OA MIXING BOX</text>
  <rect x="   950" y="   100" width="   200" height="    20" style = "fill:skyblue; stroke: Black;"/>    29
  <text x="   952" y="   113">PSZ-OFFICE COOLING COIL</text>
  <rect x="   950" y="   180" width="   200" height="    20" style = "fill:skyblue; stroke: Black;"/>    30
  <text x="   952" y="   193">PSZ-FINE STORAGE COOLING COIL</text>
  <rect x="  1450" y="   180" width="   200" height="    20" style = "fill:chartreuse; stroke: Black;"/>    31
  <text x="  1452" y="   193">ZONE2 FINE STORAGE</text>
  <rect x="   700" y="    20" width="   200" height="    20" style = "fill:chartreuse; stroke: Black;"/>    32
  <text x="   702" y="    33">ZONE3 BULK STORAGE</text>
  <line x1="  1400" y1="   110" x2="  1450" y2="   110" style = "stroke: Black;"/>
  <line x1="  1400" y1="   190" x2="  1450" y2="   190" style = "stroke: Black;"/>
  <line x1="   650" y1="   110" x2="   700" y2="   110" style = "stroke: Black;"/>
  <line x1="   650" y1="   190" x2="   700" y2="   190" style = "stroke: Black;"/>
  <line x1="   400" y1="    30" x2="   450" y2="    30" style = "stroke: Black;"/>
  <line x1="   900" y1="   110" x2="   950" y2="   110" style = "stroke: Black;"/>
  <line x1="   900" y1="   190" x2="   950" y2="   190" style = "stroke: Black;"/>
  <line x1="   650" y1="    30" x2="   700" y2="    30" style = "stroke: Black;"/>
  <line x1="   400" y1="   110" x2="   450" y2="   110" style = "stroke: Black;"/>
  <line x1="   400" y1="   190" x2="   450" y2="   190" style = "stroke: Black;"/>
  <line x1="  1150" y1="   110" x2="  1200" y2="   110" style = "stroke: Black;"/>
  <line x1="  1150" y1="   190" x2="  1200" y2="   190" style = "stroke: Black;"/>
  <line x1="  1650" y1="   110" x2="  1700" y2="   110" style = "stroke: Black;"/>
  <line x1="  1650" y1="   190" x2="  1700" y2="   190" style = "stroke: Black;"/>
  <line x1="   200" y1="    30" x2="   175" y2="    30" style = "stroke: Black;"/>
  <line x1="   175" y1="    30" x2="   175" y2="     0" style = "stroke: Black;"/>
  <line x1="   175" y1="     0" x2="   925" y2="     0" style = "stroke: Black;"/>
  <line x1="   925" y1="     0" x2="   925" y2="    30" style = "stroke: Black;"/>
  <line x1="   925" y1="    30" x2="   900" y2="    30" style = "stroke: Black;"/>
  <line x1="   200" y1="   110" x2="   175" y2="   110" style = "stroke: Black;"/>
  <line x1="   175" y1="   110" x2="   175" y2="    80" style = "stroke: Black;"/>
  <line x1="   175" y1="    80" x2="  1925" y2="    80" style = "stroke: Black;"/>
  <line x1="  1925" y1="    80" x2="  1925" y2="   110" style = "stroke: Black;"/>
  <line x1="  1925" y1="   110" x2="  1900" y2="   110" style = "stroke: Black;"/>
  <line x1="   200" y1="   190" x2="   175" y2="   190" style = "stroke: Black;"/>
  <line x1="   175" y1="   190" x2="   175" y2="   160" style = "stroke: Black;"/>
  <line x1="   175" y1="   160" x2="  1925" y2="   160" style = "stroke: Black;"/>
  <line x1="  1925" y1="   160" x2="  1925" y2="   190" style = "stroke: Black;"/>
  <line x1="  1925" y1="   190" x2="  1900" y2="   190" style = "stroke: Black;"/>
  <text x="   200" y="   400">Unused Non-Parent Objects:</text>
  <text x="   220" y="   420">OutdoorAir:Node</text>
  <text x="   220" y="   440">OutdoorAir:Node</text>
  <text x="   220" y="   460">OutdoorAir:Node</text>
  <text x="   220" y="   480">PSZ-OFFICE SUPPLY AIR TEMP MANAGER</text>
  <text x="   220" y="   500">PSZ-FINE STORAGE SUPPLY AIR TEMP MANAGER</text>
  <text x="   220" y="   520">PSZ-OFFICE OAMIXED AIR TEMP MANAGER</text>
  <text x="   220" y="   540">PSZ-OFFICE HEATC TEMP MANAGER</text>
  <text x="   220" y="   560">PSZ-FINE STORAGE OAMIXED AIR TEMP MANAGER</text>
  <text x="   220" y="   580">PSZ-FINE STORAGE HEATC TEMP MANAGER</text>
  <text x="   220" y="   600">PSZ-OFFICE OA CONTROLLER</text>
  <text x="   220" y="   620">PSZ-FINE STORAGE OA CONTROLLER</text>
  <text x="   200" y="   660">
The following are not supported: objects related to controls, AirTerminal:SingleDuct:Uncontrolled, or ZoneHVAC:IdealLoadsAirSystem</text>
</g>
</svg>
